<svg xmlns="http://www.w3.org/2000/svg" viewBox="0 0 198.42 28.74"><defs><style>.cls-1{fill:#d71f2d;}</style></defs><g id="Layer_2" data-name="Layer 2"><g id="Layer_1-2" data-name="Layer 1"><path class="cls-1" d="M1.71,8h8.54A1.53,1.53,0,0,1,12,9.46c.28,1.32.17,2.24-1.32,2.35L8,12c2,12.47,13.51,16.53,19.79,3.1,1-2.22,1.38-2.62,2.52-2.34,1.55.38,1.76,1.18,1,3.42C25.86,32.73,7.6,34.39,4,12.28l-2.18.16C.07,12.57,0,11.07,0,10.24,0,8.6.61,8,1.71,8"/><path class="cls-1" d="M32.76,0a3.17,3.17,0,1,1-3.17,3.17A3.17,3.17,0,0,1,32.76,0"/><path class="cls-1" d="M65.45,24.85a.49.49,0,0,0,.14-.18.71.71,0,0,0,0-.3V14.59a.83.83,0,0,0,0-.31.55.55,0,0,0-.14-.17,1.87,1.87,0,0,0-1-.18,1.93,1.93,0,0,0-1.05.18.55.55,0,0,0-.14.17.86.86,0,0,0,0,.31v9.78a.59.59,0,0,0,.18.48,1.93,1.93,0,0,0,1.05.18,1.87,1.87,0,0,0,1-.18"/><path class="cls-1" d="M58.15,24.91a3.72,3.72,0,0,0,1.38-.8,3.07,3.07,0,0,0,.79-1.21,4.41,4.41,0,0,0,.25-1.52V14.59a.59.59,0,0,0-.17-.48,3.09,3.09,0,0,0-2.08,0,.37.37,0,0,0-.14.17.86.86,0,0,0,0,.31v6.75a2.67,2.67,0,0,1-.14.82,1.34,1.34,0,0,1-.62.7,2.48,2.48,0,0,1-1.24.27,3.07,3.07,0,0,1-.92-.12,1.65,1.65,0,0,1-.62-.37,1.4,1.4,0,0,1-.35-.56,2.5,2.5,0,0,1-.11-.74V14.59a.56.56,0,0,0-.18-.48,3.09,3.09,0,0,0-2.08,0,.44.44,0,0,0-.14.17.86.86,0,0,0,0,.31v6.79A4.41,4.41,0,0,0,52,22.9a3.07,3.07,0,0,0,.79,1.21,3.72,3.72,0,0,0,1.38.8,7.15,7.15,0,0,0,4,0"/><path class="cls-1" d="M46.19,24.85a.4.4,0,0,0,.14-.18.74.74,0,0,0,0-.3V16h2.44a1.78,1.78,0,0,0,.44-.05.49.49,0,0,0,.26-.23,2.29,2.29,0,0,0,.17-.6,4.22,4.22,0,0,0,.06-.62,1.07,1.07,0,0,0,0-.29.26.26,0,0,0-.13-.16.38.38,0,0,0-.17-.06,1.42,1.42,0,0,0-.32,0h-7.6a1.36,1.36,0,0,0-.44.05.42.42,0,0,0-.26.23,1.59,1.59,0,0,0-.17.52,3.82,3.82,0,0,0-.06.68,1.05,1.05,0,0,0,0,.3.3.3,0,0,0,.13.17,1.08,1.08,0,0,0,.49.08h2.72v8.34a.56.56,0,0,0,.18.48,3.09,3.09,0,0,0,2.08,0"/><path d="M75.15,25a4.36,4.36,0,0,1-1.8-.37,4.25,4.25,0,0,1-1.46-1.07,5.14,5.14,0,0,1-1-1.74,7.07,7.07,0,0,1-.36-2.35,7.14,7.14,0,0,1,.36-2.36,5.42,5.42,0,0,1,1-1.75,4.1,4.1,0,0,1,1.47-1.08,4.5,4.5,0,0,1,1.82-.38,5.81,5.81,0,0,1,1.53.15c.34.1.67.22,1,.35a1.16,1.16,0,0,1,.4.24.29.29,0,0,1,.09.16,1.13,1.13,0,0,1,0,.24,2.16,2.16,0,0,1-.14.33,1.73,1.73,0,0,1-.25.36.28.28,0,0,1-.18.1.69.69,0,0,1-.25-.08l-.18-.1a2.43,2.43,0,0,0-.39-.18,4.43,4.43,0,0,0-.64-.17,4.8,4.8,0,0,0-.93-.08,2.85,2.85,0,0,0-1.29.29,2.65,2.65,0,0,0-1,.82,4,4,0,0,0-.61,1.34,7,7,0,0,0-.21,1.8,6.23,6.23,0,0,0,.24,1.8A4.08,4.08,0,0,0,73,22.62a3,3,0,0,0,1,.81,2.71,2.71,0,0,0,1.23.28,4.49,4.49,0,0,0,1.07-.12,3.25,3.25,0,0,0,.73-.24l.32-.17a.82.82,0,0,1,.32-.09.29.29,0,0,1,.18.08,1.22,1.22,0,0,1,.23.28,1.41,1.41,0,0,1,.24.59c0,.1-.16.24-.48.41a2.92,2.92,0,0,1-.65.28,6.31,6.31,0,0,1-.94.21,6.74,6.74,0,0,1-1.11.09"/><path d="M79.9,24.87a2,2,0,0,1-.43,0,.56.56,0,0,1-.19-.09.21.21,0,0,1,0-.15,3,3,0,0,1,.08-.33l3.45-9.92a.36.36,0,0,1,.2-.22,1.56,1.56,0,0,1,.59-.07,1.69,1.69,0,0,1,.61.07.45.45,0,0,1,.21.22l3.49,10.07a.57.57,0,0,1,0,.18.25.25,0,0,1-.08.17.46.46,0,0,1-.19.07,2.27,2.27,0,0,1-.44,0,2.12,2.12,0,0,1-.42,0,.54.54,0,0,1-.2-.09.81.81,0,0,1-.16-.33l-.85-2.55h-4l-.83,2.55c-.07.15-.11.25-.14.3a.34.34,0,0,1-.2.11,1.69,1.69,0,0,1-.43.05m2-4.18h3.26l-1.64-4.91Z"/><path d="M90.16,24.86a1.58,1.58,0,0,1-.53-.06c-.09,0-.15-.09-.16-.15a1.63,1.63,0,0,1,0-.24V14.62a.45.45,0,0,1,.11-.35c.07-.08.26-.11.59-.11h2.41a4.53,4.53,0,0,1,2.85.73,2.67,2.67,0,0,1,.91,2.22,3.53,3.53,0,0,1-.3,1.48,2.49,2.49,0,0,1-.84,1,4.09,4.09,0,0,1-1.18.55l3,4.15a1,1,0,0,1,.07.15.35.35,0,0,1,0,.13.17.17,0,0,1-.13.18,1.91,1.91,0,0,1-.72.09,2.89,2.89,0,0,1-.44,0,.59.59,0,0,1-.24-.08l-.08-.1-3-4.3c-.35,0-.88,0-1.59-.07v4.12a.49.49,0,0,1-.08.33.72.72,0,0,1-.21.09,2.51,2.51,0,0,1-.44,0m2.25-5.73A3.77,3.77,0,0,0,93.56,19a1.8,1.8,0,0,0,.75-.41,1.41,1.41,0,0,0,.41-.63,2.64,2.64,0,0,0,.12-.81,1.91,1.91,0,0,0-.27-1.07,1.36,1.36,0,0,0-.82-.55,4.48,4.48,0,0,0-1.2-.15H90.89V19.1c.43,0,.94,0,1.52,0"/><path d="M99.4,24.8a1.42,1.42,0,0,1-.43,0,.38.38,0,0,1-.17-.08.5.5,0,0,1-.09-.33V14.62a.49.49,0,0,1,.1-.35,1,1,0,0,1,.59-.11h5.48l.18,0,.08,0a.39.39,0,0,1,.06.26,2.12,2.12,0,0,1,0,.44,1.22,1.22,0,0,1-.08.32.33.33,0,0,1-.17.12.69.69,0,0,1-.28,0h-4.48v3h4a.62.62,0,0,1,.18,0l.07,0a.35.35,0,0,1,.07.26,3.42,3.42,0,0,1,0,.45.82.82,0,0,1-.09.31.34.34,0,0,1-.16.13,1.12,1.12,0,0,1-.29,0h-3.76v3.92H105a.4.4,0,0,1,.25.06.41.41,0,0,1,.06.26,3.34,3.34,0,0,1,0,.43.81.81,0,0,1-.1.34.28.28,0,0,1-.16.12,1,1,0,0,1-.28,0Z"/><path d="M110.87,24.87a1.36,1.36,0,0,1-.54-.07q-.14-.06-.15-.15a.82.82,0,0,1,0-.24V14.62a.5.5,0,0,1,.11-.34.37.37,0,0,1,.19-.09,2,2,0,0,1,.4,0h5.32a.48.48,0,0,1,.26.06.39.39,0,0,1,.06.26,2.27,2.27,0,0,1,0,.42,1.73,1.73,0,0,1-.09.34.37.37,0,0,1-.17.13,1,1,0,0,1-.28,0H111.6v3.16h3.87a.35.35,0,0,1,.24.06.35.35,0,0,1,.07.26,3.44,3.44,0,0,1,0,.42,1.17,1.17,0,0,1-.1.34.29.29,0,0,1-.16.13,1,1,0,0,1-.28,0H111.6v4.61a.66.66,0,0,1,0,.29.41.41,0,0,1-.22.12,2,2,0,0,1-.47.05"/><path d="M121.91,25a4.54,4.54,0,0,1-1.86-.37,4,4,0,0,1-1.46-1.08,5,5,0,0,1-1-1.73,7.67,7.67,0,0,1-.33-2.35,7.69,7.69,0,0,1,.33-2.36,5.16,5.16,0,0,1,1-1.75,4,4,0,0,1,1.46-1.08,4.74,4.74,0,0,1,3.72,0,3.94,3.94,0,0,1,1.45,1.08,5,5,0,0,1,1,1.75,8.33,8.33,0,0,1,0,4.71,4.81,4.81,0,0,1-1,1.73,3.94,3.94,0,0,1-1.45,1.08,4.51,4.51,0,0,1-1.86.37m0-1.27a2.82,2.82,0,0,0,1.29-.29,2.68,2.68,0,0,0,1-.83,4,4,0,0,0,.6-1.34,7.5,7.5,0,0,0,.2-1.8,7.59,7.59,0,0,0-.2-1.81,4.09,4.09,0,0,0-.6-1.35,2.62,2.62,0,0,0-1-.84,2.7,2.7,0,0,0-1.29-.29,2.72,2.72,0,0,0-1.29.29,2.57,2.57,0,0,0-1,.84,3.89,3.89,0,0,0-.59,1.35,7.11,7.11,0,0,0-.2,1.81,7,7,0,0,0,.2,1.8,3.84,3.84,0,0,0,.59,1.34,2.63,2.63,0,0,0,1,.83,2.85,2.85,0,0,0,1.29.29"/><path d="M132.54,25a5.52,5.52,0,0,1-1.83-.27,3.14,3.14,0,0,1-1.22-.74,2.74,2.74,0,0,1-.69-1.13,4.6,4.6,0,0,1-.21-1.42V14.55a.49.49,0,0,1,.08-.33.43.43,0,0,1,.21-.08,1.81,1.81,0,0,1,.46,0,1.48,1.48,0,0,1,.41,0,.38.38,0,0,1,.2.08.43.43,0,0,1,.09.33v7.09a2.24,2.24,0,0,0,.15.81,1.88,1.88,0,0,0,.45.68,2.49,2.49,0,0,0,.78.47,3.81,3.81,0,0,0,2.25,0,2.38,2.38,0,0,0,.78-.47,1.91,1.91,0,0,0,.46-.68,2.24,2.24,0,0,0,.15-.81V14.55a.71.71,0,0,1,0-.29.34.34,0,0,1,.22-.12,2,2,0,0,1,.47,0,1.47,1.47,0,0,1,.52.06.32.32,0,0,1,.17.15,1.44,1.44,0,0,1,0,.24v6.92a4.6,4.6,0,0,1-.21,1.42A2.74,2.74,0,0,1,135.6,24a3.14,3.14,0,0,1-1.22.74,5.54,5.54,0,0,1-1.84.27"/><path d="M139.8,24.87a1.93,1.93,0,0,1-.41,0,.54.54,0,0,1-.2-.09c-.06,0-.09-.16-.09-.33V15.3l-.39-.65a.42.42,0,0,1-.09-.24.2.2,0,0,1,.08-.19.48.48,0,0,1,.23-.08,2.54,2.54,0,0,1,.57,0,1.69,1.69,0,0,1,.43,0,.57.57,0,0,1,.2.08l.05,0,0,0a.61.61,0,0,1,.1.18l4.79,7.64V14.55a.78.78,0,0,1,0-.28.35.35,0,0,1,.2-.13,1.53,1.53,0,0,1,.41,0,1.68,1.68,0,0,1,.55.06.33.33,0,0,1,.16.15,1.44,1.44,0,0,1,0,.24v9.86a.66.66,0,0,1,0,.29.39.39,0,0,1-.19.12,1.35,1.35,0,0,1-.4.05,1.86,1.86,0,0,1-.41,0,.55.55,0,0,1-.18-.07.29.29,0,0,1-.11-.15l-4.69-7.46v7.26c0,.17,0,.29-.1.33a.52.52,0,0,1-.17.09,1.78,1.78,0,0,1-.41,0"/><path d="M149.88,24.8a1.5,1.5,0,0,1-.44,0,.38.38,0,0,1-.17-.08.5.5,0,0,1-.09-.33V14.62a.49.49,0,0,1,.11-.35c.07-.08.27-.11.59-.11h2.92a5,5,0,0,1,1.94.35,4,4,0,0,1,1.49,1,4.66,4.66,0,0,1,1,1.66,6.84,6.84,0,0,1,.34,2.26,6.94,6.94,0,0,1-.34,2.27,4.62,4.62,0,0,1-1,1.68,4,4,0,0,1-1.49,1.05,5.36,5.36,0,0,1-2,.35Zm.74-1.24h2.18a3.1,3.1,0,0,0,1.37-.28,2.49,2.49,0,0,0,1-.8,3.8,3.8,0,0,0,.6-1.3,7.58,7.58,0,0,0,0-3.46,3.66,3.66,0,0,0-.61-1.27,2.63,2.63,0,0,0-1-.78,3.51,3.51,0,0,0-1.43-.27h-2.08Z"/><path d="M159.08,24.87a2,2,0,0,1-.43,0,.67.67,0,0,1-.19-.09.21.21,0,0,1-.05-.15,3,3,0,0,1,.08-.33l3.45-9.92a.36.36,0,0,1,.2-.22,1.56,1.56,0,0,1,.59-.07,1.65,1.65,0,0,1,.61.07.45.45,0,0,1,.21.22L167,24.41a.57.57,0,0,1,0,.18.21.21,0,0,1-.08.17.46.46,0,0,1-.19.07,2.27,2.27,0,0,1-.44,0,2.12,2.12,0,0,1-.42,0,.54.54,0,0,1-.2-.09.81.81,0,0,1-.16-.33l-.84-2.55h-4.05l-.84,2.55a2.29,2.29,0,0,1-.14.3c0,.05-.09.08-.2.11a1.63,1.63,0,0,1-.43.05m2-4.18h3.26l-1.64-4.91Z"/><path d="M170.34,24.87a2.12,2.12,0,0,1-.42,0,.54.54,0,0,1-.2-.09c-.07,0-.1-.16-.1-.33v-9h-3.1l-.18,0-.07-.05a.39.39,0,0,1-.07-.25,2.22,2.22,0,0,1,0-.43,1.09,1.09,0,0,1,.09-.34.33.33,0,0,1,.17-.12,1,1,0,0,1,.28,0h7.37a.39.39,0,0,1,.18,0l.07,0s.07.13.07.26a3.13,3.13,0,0,1,0,.44.88.88,0,0,1-.09.32.34.34,0,0,1-.16.13,1,1,0,0,1-.28,0h-2.82v9c0,.17,0,.29-.09.33a.54.54,0,0,1-.2.09,2.48,2.48,0,0,1-.45,0"/><path d="M176.76,24.87a1.25,1.25,0,0,1-.52-.07c-.1,0-.15-.09-.16-.15a1.44,1.44,0,0,1,0-.24V14.55a.58.58,0,0,1,.05-.28.35.35,0,0,1,.21-.13,1.89,1.89,0,0,1,.44,0,1.68,1.68,0,0,1,.44,0,.43.43,0,0,1,.21.08c.06,0,.08.16.08.33v9.86c0,.17,0,.28-.08.33a.53.53,0,0,1-.21.09,2.27,2.27,0,0,1-.44,0"/><path d="M184.27,25a4.59,4.59,0,0,1-1.87-.37,4,4,0,0,1-1.46-1.08,5,5,0,0,1-.95-1.73,7.67,7.67,0,0,1-.33-2.35,7.69,7.69,0,0,1,.33-2.36,5.16,5.16,0,0,1,.95-1.75,4,4,0,0,1,1.46-1.08,4.6,4.6,0,0,1,1.87-.38,4.5,4.5,0,0,1,1.85.38,3.94,3.94,0,0,1,1.45,1.08,5,5,0,0,1,1,1.75,7.38,7.38,0,0,1,.34,2.36,7.36,7.36,0,0,1-.34,2.35,4.81,4.81,0,0,1-1,1.73,3.94,3.94,0,0,1-1.45,1.08,4.5,4.5,0,0,1-1.85.37m0-1.27a2.8,2.8,0,0,0,1.28-.29,2.68,2.68,0,0,0,.95-.83,3.84,3.84,0,0,0,.6-1.34,7.5,7.5,0,0,0,.2-1.8,7.59,7.59,0,0,0-.2-1.81,3.9,3.9,0,0,0-.6-1.35,2.62,2.62,0,0,0-.95-.84,2.68,2.68,0,0,0-1.28-.29,2.74,2.74,0,0,0-1.3.29,2.57,2.57,0,0,0-1,.84,3.89,3.89,0,0,0-.59,1.35,7.11,7.11,0,0,0-.2,1.81,7,7,0,0,0,.2,1.8,3.84,3.84,0,0,0,.59,1.34,2.63,2.63,0,0,0,1,.83,2.86,2.86,0,0,0,1.3.29"/><path d="M191.72,24.87a2.09,2.09,0,0,1-.41,0,.47.47,0,0,1-.19-.09c-.07,0-.1-.16-.1-.33V15.3l-.38-.65a.38.38,0,0,1-.1-.24.23.23,0,0,1,.08-.19.53.53,0,0,1,.23-.08,2.66,2.66,0,0,1,.57,0,1.69,1.69,0,0,1,.43,0,.65.65,0,0,1,.21.08s0,0,0,0l.05,0a.84.84,0,0,1,.11.18L197,22.12V14.55a.58.58,0,0,1,.05-.28.32.32,0,0,1,.19-.13,2.35,2.35,0,0,1,1,0c.09.05.15.1.16.15a.82.82,0,0,1,0,.24v9.86a.66.66,0,0,1,0,.29.31.31,0,0,1-.19.12,1.3,1.3,0,0,1-.4.05,1.93,1.93,0,0,1-.41,0,.55.55,0,0,1-.18-.07.36.36,0,0,1-.11-.15l-4.68-7.46v7.26c0,.17,0,.29-.11.33a.45.45,0,0,1-.16.09,1.82,1.82,0,0,1-.42,0"/></g></g></svg>