<svg id="Layer_1" data-name="Layer 1" xmlns="http://www.w3.org/2000/svg" viewBox="0 0 821.38 260.83"><defs><style>.cls-1{fill:#ee2d24;}</style></defs><path class="cls-1" d="M38.55,98.16H91.63c5.2,0,9.12,1.64,10.67,9,1.72,8.21,1,13.94-8.25,14.58L77.39,123c12.26,77.49,84,102.74,123,19.28,6.46-13.82,8.57-16.32,15.65-14.56,9.6,2.37,10.92,7.3,6.34,21.24C188.64,251.83,75.19,262.14,52.93,124.73l-13.55,1C28.37,126.5,28,117.21,28,112c0-10.23,3.79-13.88,10.6-13.88" transform="translate(-27.95 -48.4)"/><path class="cls-1" d="M231.53,48.4a19.7,19.7,0,1,1-19.7,19.7,19.7,19.7,0,0,1,19.7-19.7" transform="translate(-27.95 -48.4)"/><path class="cls-1" d="M434.69,202.85a2.94,2.94,0,0,0,.87-1.12,4.68,4.68,0,0,0,.27-1.86V139.05a4.82,4.82,0,0,0-.27-1.88,2.48,2.48,0,0,0-.87-1.09c-.92-.74-3.06-1.11-6.4-1.11s-5.59.37-6.51,1.11a2.63,2.63,0,0,0-.87,1.09,4.82,4.82,0,0,0-.27,1.88v60.82a3.66,3.66,0,0,0,1.14,3c.92.72,3.09,1.09,6.51,1.09s5.48-.37,6.4-1.09" transform="translate(-27.95 -48.4)"/><path class="cls-1" d="M389.33,203.19a23.14,23.14,0,0,0,8.58-5,19.2,19.2,0,0,0,4.91-7.52,27.86,27.86,0,0,0,1.56-9.46V139.06a3.6,3.6,0,0,0-1.09-3q-1.5-1.09-6.4-1.09-5.13,0-6.52,1.09a2.33,2.33,0,0,0-.89,1.09,5.76,5.76,0,0,0-.25,1.9v42a15.91,15.91,0,0,1-.87,5.08,8,8,0,0,1-3.8,4.33,15.31,15.31,0,0,1-7.74,1.71,17.94,17.94,0,0,1-5.7-.79,9.9,9.9,0,0,1-3.85-2.26,8.93,8.93,0,0,1-2.19-3.53,14.22,14.22,0,0,1-.7-4.54v-42a3.54,3.54,0,0,0-1.09-3c-1-.73-3.13-1.09-6.4-1.09s-5.59.36-6.51,1.09a2.27,2.27,0,0,0-.89,1.09,5.51,5.51,0,0,0-.25,1.9v42.18a27.86,27.86,0,0,0,1.56,9.46,19,19,0,0,0,4.93,7.52,22.89,22.89,0,0,0,8.56,5,44.44,44.44,0,0,0,25,0" transform="translate(-27.95 -48.4)"/><path class="cls-1" d="M315,202.85a2.86,2.86,0,0,0,.84-1.12,5.15,5.15,0,0,0,.25-1.86V148h15.16a9.67,9.67,0,0,0,2.73-.32,2.79,2.79,0,0,0,1.64-1.43,12.56,12.56,0,0,0,1.06-3.72,26,26,0,0,0,.38-3.82,6.43,6.43,0,0,0-.2-1.82,2,2,0,0,0-.79-1,3.28,3.28,0,0,0-1.1-.37,11.32,11.32,0,0,0-2-.12h-47.2a9.2,9.2,0,0,0-2.72.32,2.71,2.71,0,0,0-1.64,1.42,10.26,10.26,0,0,0-1.08,3.27,24.38,24.38,0,0,0-.37,4.23,6.61,6.61,0,0,0,.2,1.86,1.86,1.86,0,0,0,.85,1,6.31,6.31,0,0,0,3,.5H301v51.87a3.48,3.48,0,0,0,1.14,3c.93.72,3.1,1.09,6.51,1.09s5.41-.37,6.41-1.09" transform="translate(-27.95 -48.4)"/><path d="M495,203.93a27.25,27.25,0,0,1-11.18-2.29,25.62,25.62,0,0,1-9.06-6.67,31.82,31.82,0,0,1-6.08-10.79,44.4,44.4,0,0,1-2.21-14.62,43.58,43.58,0,0,1,2.26-14.66A32.79,32.79,0,0,1,474.87,144a26.27,26.27,0,0,1,9.18-6.75A27.92,27.92,0,0,1,495.37,135a37.27,37.27,0,0,1,9.49.91,56.91,56.91,0,0,1,6.13,2.18,7.79,7.79,0,0,1,2.5,1.49,1.83,1.83,0,0,1,.53,1,5.72,5.72,0,0,1-.29,1.5,12.49,12.49,0,0,1-2.43,4.34,1.76,1.76,0,0,1-1.14.57,4,4,0,0,1-1.54-.48,7.63,7.63,0,0,1-1.13-.62,13.6,13.6,0,0,0-2.41-1.12,27.77,27.77,0,0,0-4-1.06,29.63,29.63,0,0,0-5.75-.48,17.88,17.88,0,0,0-8.06,1.77,16.43,16.43,0,0,0-6.05,5.13,24.63,24.63,0,0,0-3.82,8.29,43.68,43.68,0,0,0-1.31,11.19,38,38,0,0,0,1.49,11.18,25.4,25.4,0,0,0,4.09,8.2,17.89,17.89,0,0,0,6.15,5.07,17.39,17.39,0,0,0,7.7,1.73,28.1,28.1,0,0,0,6.6-.73,20.88,20.88,0,0,0,4.56-1.51c1-.54,1.67-.88,2-1a4.77,4.77,0,0,1,2-.58,1.84,1.84,0,0,1,1.14.5,8.26,8.26,0,0,1,1.42,1.77,8.58,8.58,0,0,1,1.5,3.66c0,.61-1,1.46-3,2.55a21.05,21.05,0,0,1-4,1.69,38.61,38.61,0,0,1-5.86,1.35,43,43,0,0,1-6.9.53" transform="translate(-27.95 -48.4)"/><path d="M536.92,177h20.25L547,146.46Zm-12.44,25.94a10.8,10.8,0,0,1-2.68-.24,3.37,3.37,0,0,1-1.18-.53,1.26,1.26,0,0,1-.29-.91,14.79,14.79,0,0,1,.48-2.08l21.46-61.62a2.22,2.22,0,0,1,1.23-1.4,10.24,10.24,0,0,1,3.69-.43,10.08,10.08,0,0,1,3.76.45,2.47,2.47,0,0,1,1.3,1.38L574,200.07a4,4,0,0,1,.19,1.17,1.45,1.45,0,0,1-.48,1,2.74,2.74,0,0,1-1.18.46,13.66,13.66,0,0,1-2.77.21,11,11,0,0,1-2.59-.24,3.46,3.46,0,0,1-1.27-.53,5.42,5.42,0,0,1-1-2.08l-5.26-15.81H534.45l-5.2,15.81a16.66,16.66,0,0,1-.84,1.89,2.13,2.13,0,0,1-1.27.7,10.78,10.78,0,0,1-2.66.26" transform="translate(-27.95 -48.4)"/><path d="M602.26,167.29a24.29,24.29,0,0,0,7.13-.91,12,12,0,0,0,4.66-2.57,9.28,9.28,0,0,0,2.52-3.92,15.86,15.86,0,0,0,.77-5,11.7,11.7,0,0,0-1.68-6.66,8.54,8.54,0,0,0-5.09-3.42,28.53,28.53,0,0,0-7.45-.91H592.76V167.1q4.08.19,9.5.19m-14,35.63a9.2,9.2,0,0,1-3.25-.39c-.6-.25-.92-.57-1-.94a9.81,9.81,0,0,1-.1-1.52V139.22a3,3,0,0,1,.68-2.17c.45-.45,1.67-.67,3.66-.67h15q12.06,0,17.72,4.56t5.67,13.81a21.93,21.93,0,0,1-1.86,9.17,15.15,15.15,0,0,1-5.26,6.36,25.32,25.32,0,0,1-7.31,3.43l18.38,25.78a5.47,5.47,0,0,1,.46.9,2.52,2.52,0,0,1,.17.85,1.14,1.14,0,0,1-.82,1.1,11.22,11.22,0,0,1-4.44.58,21.45,21.45,0,0,1-2.77-.16,2.87,2.87,0,0,1-1.45-.49,3.12,3.12,0,0,1-.51-.61L602.64,174.9c-2.15,0-5.45-.14-9.88-.42v25.59a3,3,0,0,1-.49,2.08,3.43,3.43,0,0,1-1.29.53,12.26,12.26,0,0,1-2.76.24" transform="translate(-27.95 -48.4)"/><path d="M645.7,202.54a10.81,10.81,0,0,1-2.73-.24,2.74,2.74,0,0,1-1-.54,3.08,3.08,0,0,1-.58-2.07V139.23a3,3,0,0,1,.67-2.17c.46-.45,1.68-.68,3.67-.68h34a3.53,3.53,0,0,1,1.13.12,1.21,1.21,0,0,1,.46.27,2.31,2.31,0,0,1,.38,1.59,17.68,17.68,0,0,1-.21,2.77,6.15,6.15,0,0,1-.56,2,1.85,1.85,0,0,1-1,.8,5.6,5.6,0,0,1-1.73.21H650.33v18.66h25a3.42,3.42,0,0,1,1.12.13,1.26,1.26,0,0,1,.47.26,2.32,2.32,0,0,1,.38,1.59,18.39,18.39,0,0,1-.22,2.78,5.46,5.46,0,0,1-.58,2,1.78,1.78,0,0,1-1,.77,7.27,7.27,0,0,1-1.75.19H650.33v24.4h29.93a2.2,2.2,0,0,1,1.56.38,2.37,2.37,0,0,1,.38,1.58,19.77,19.77,0,0,1-.19,2.69,6,6,0,0,1-.58,2.09,1.93,1.93,0,0,1-1,.78,6.2,6.2,0,0,1-1.74.19Z" transform="translate(-27.95 -48.4)"/><path d="M305.23,308.21a9.64,9.64,0,0,1-3.35-.39c-.6-.25-.92-.57-1-.94a10,10,0,0,1-.09-1.52V244.51a2.79,2.79,0,0,1,.67-2.06,2.49,2.49,0,0,1,1.21-.58,11.45,11.45,0,0,1,2.46-.2h33.07a2.7,2.7,0,0,1,1.6.39,2.36,2.36,0,0,1,.38,1.59,16.54,16.54,0,0,1-.24,2.63,7.31,7.31,0,0,1-.58,2.1,2,2,0,0,1-1,.79,5.33,5.33,0,0,1-1.74.22H309.77V269h24a1.61,1.61,0,0,1,2,2,17.56,17.56,0,0,1-.24,2.62,7,7,0,0,1-.61,2.1,1.67,1.67,0,0,1-1,.82,6.18,6.18,0,0,1-1.75.2H309.77v28.63a4,4,0,0,1-.29,1.84,2.18,2.18,0,0,1-1.38.75,12.36,12.36,0,0,1-2.87.26" transform="translate(-27.95 -48.4)"/><path d="M373.85,301.31a17.3,17.3,0,0,0,8-1.78,16.51,16.51,0,0,0,5.93-5.16,24.3,24.3,0,0,0,3.69-8.29,51.12,51.12,0,0,0,0-22.47,24.76,24.76,0,0,0-3.69-8.39,16.65,16.65,0,0,0-5.93-5.24,17.3,17.3,0,0,0-8-1.8,17.54,17.54,0,0,0-8.05,1.8,16.65,16.65,0,0,0-6,5.24,25,25,0,0,0-3.69,8.39,51.52,51.52,0,0,0,0,22.47,24.5,24.5,0,0,0,3.69,8.29,16.51,16.51,0,0,0,6,5.16,17.53,17.53,0,0,0,8.05,1.78m0,7.91a28.8,28.8,0,0,1-11.6-2.29,25,25,0,0,1-9.06-6.68,31.13,31.13,0,0,1-5.89-10.78,52.56,52.56,0,0,1,0-29.28,31.71,31.71,0,0,1,5.89-10.86,25,25,0,0,1,9.06-6.75,28.64,28.64,0,0,1,11.6-2.31,28.29,28.29,0,0,1,11.52,2.31,25.08,25.08,0,0,1,9.05,6.75,32,32,0,0,1,5.88,10.86,52.32,52.32,0,0,1,0,29.28,31.45,31.45,0,0,1-5.88,10.78,25,25,0,0,1-9.05,6.68,28.45,28.45,0,0,1-11.52,2.29" transform="translate(-27.95 -48.4)"/><path d="M439.91,309.22a34.39,34.39,0,0,1-11.38-1.66,20.18,20.18,0,0,1-7.62-4.6,17.43,17.43,0,0,1-4.26-7,28.16,28.16,0,0,1-1.33-8.87v-43a2.86,2.86,0,0,1,.53-2.06,2.74,2.74,0,0,1,1.27-.53,12.52,12.52,0,0,1,2.87-.24,10.52,10.52,0,0,1,2.59.24,2.64,2.64,0,0,1,1.22.53,2.82,2.82,0,0,1,.53,2.06v44a13.85,13.85,0,0,0,.92,5,11.35,11.35,0,0,0,2.85,4.23,14.08,14.08,0,0,0,4.85,2.92,20,20,0,0,0,7,1.07,20.3,20.3,0,0,0,7-1.07,14.08,14.08,0,0,0,4.87-2.92,11.47,11.47,0,0,0,2.85-4.23,14.05,14.05,0,0,0,.91-5v-44a4.21,4.21,0,0,1,.26-1.8,2,2,0,0,1,1.35-.77,12.72,12.72,0,0,1,2.92-.26,8.91,8.91,0,0,1,3.29.4,1.77,1.77,0,0,1,1,.94,6.35,6.35,0,0,1,.14,1.49v43a28.16,28.16,0,0,1-1.33,8.87,17.43,17.43,0,0,1-4.26,7,20.26,20.26,0,0,1-7.62,4.6,34.39,34.39,0,0,1-11.38,1.66" transform="translate(-27.95 -48.4)"/><path d="M485,308.21a10.55,10.55,0,0,1-2.55-.24,2.88,2.88,0,0,1-1.21-.53c-.39-.29-.58-1-.58-2.08v-56.6l-2.4-4a2.39,2.39,0,0,1-.59-1.44,1.38,1.38,0,0,1,.49-1.21,3.83,3.83,0,0,1,1.42-.54,19.42,19.42,0,0,1,3.54-.23,10.58,10.58,0,0,1,2.68.26,3.47,3.47,0,0,1,1.28.51,2.6,2.6,0,0,0,.28.23l.3.25a5,5,0,0,1,.67,1.11l29.75,47.49v-47a4.09,4.09,0,0,1,.27-1.79,2,2,0,0,1,1.2-.77,9.26,9.26,0,0,1,2.58-.28,8.93,8.93,0,0,1,3.37.41c.58.27.93.58,1,.94a5.8,5.8,0,0,1,.14,1.49v61.23a4.05,4.05,0,0,1-.28,1.84,2,2,0,0,1-1.16.75,9.06,9.06,0,0,1-2.51.26,11.46,11.46,0,0,1-2.54-.21,3,3,0,0,1-1.12-.47,2.27,2.27,0,0,1-.68-.91l-29.12-46.39v45.13c0,1.09-.21,1.79-.63,2.08a2.67,2.67,0,0,1-1,.53,9.49,9.49,0,0,1-2.58.24" transform="translate(-27.95 -48.4)"/><path d="M552.26,300.11H565.8a19.76,19.76,0,0,0,8.52-1.74,16.12,16.12,0,0,0,6.14-5,23.07,23.07,0,0,0,3.72-8,42.12,42.12,0,0,0,1.25-10.78,41.47,41.47,0,0,0-1.25-10.72,21.42,21.42,0,0,0-3.79-7.91,16.11,16.11,0,0,0-6.33-4.87,22.07,22.07,0,0,0-8.87-1.67H552.26Zm-4.63,7.71a11,11,0,0,1-2.73-.23,2.74,2.74,0,0,1-1-.54,3.1,3.1,0,0,1-.58-2.07V244.52a3,3,0,0,1,.67-2.17c.46-.45,1.68-.68,3.67-.68H565.8a32.11,32.11,0,0,1,12.07,2.17,25,25,0,0,1,9.22,6.36A28.88,28.88,0,0,1,593,260.52a43.49,43.49,0,0,1,2.09,14A44.12,44.12,0,0,1,593,288.66a29.64,29.64,0,0,1-6,10.46,25.34,25.34,0,0,1-9.3,6.49,32.13,32.13,0,0,1-12.2,2.21Z" transform="translate(-27.95 -48.4)"/><path d="M617.26,282.27h20.25l-10.18-30.52Zm-12.44,25.94a10.8,10.8,0,0,1-2.68-.24,3.37,3.37,0,0,1-1.18-.53,1.26,1.26,0,0,1-.29-.91,14.47,14.47,0,0,1,.48-2.08l21.46-61.62a2.17,2.17,0,0,1,1.23-1.4,16,16,0,0,1,7.45,0,2.47,2.47,0,0,1,1.3,1.38l21.7,62.53a3.92,3.92,0,0,1,.19,1.17,1.41,1.41,0,0,1-.48,1,2.71,2.71,0,0,1-1.18.47,13.66,13.66,0,0,1-2.77.21,11,11,0,0,1-2.59-.24,3.46,3.46,0,0,1-1.27-.53,5.13,5.13,0,0,1-1-2.08L640,289.55H614.79l-5.2,15.81a15.24,15.24,0,0,1-.85,1.89,2.11,2.11,0,0,1-1.27.7,10.64,10.64,0,0,1-2.65.26" transform="translate(-27.95 -48.4)"/><path d="M674.78,308.21a11.34,11.34,0,0,1-2.61-.24,2.86,2.86,0,0,1-1.24-.53c-.4-.29-.59-1-.59-2.08v-56H651.06a3,3,0,0,1-1.11-.14,2,2,0,0,1-.44-.3,2.2,2.2,0,0,1-.43-1.54,18.45,18.45,0,0,1,.22-2.67,6.16,6.16,0,0,1,.61-2.1,1.77,1.77,0,0,1,1-.77,6.1,6.1,0,0,1,1.74-.2h45.81a3.17,3.17,0,0,1,1.12.13,1.14,1.14,0,0,1,.47.26,2.3,2.3,0,0,1,.39,1.59,17.75,17.75,0,0,1-.23,2.77,6.48,6.48,0,0,1-.56,2,2,2,0,0,1-1,.79,5.37,5.37,0,0,1-1.74.22h-17.5v56c0,1.09-.19,1.79-.59,2.08a2.8,2.8,0,0,1-1.24.53,12.35,12.35,0,0,1-2.8.24" transform="translate(-27.95 -48.4)"/><path d="M714.71,308.21a9.12,9.12,0,0,1-3.25-.39c-.61-.25-.93-.57-1-.94a9.81,9.81,0,0,1-.1-1.52V244.13a4.25,4.25,0,0,1,.27-1.79,2.1,2.1,0,0,1,1.35-.77,11,11,0,0,1,2.73-.28,12.89,12.89,0,0,1,2.75.23,3.5,3.5,0,0,1,1.29.54,3,3,0,0,1,.49,2.07v61.23a3,3,0,0,1-.49,2.08,3.36,3.36,0,0,1-1.29.53,12.16,12.16,0,0,1-2.75.24" transform="translate(-27.95 -48.4)"/><path d="M761.33,301.31a17.37,17.37,0,0,0,8-1.78,16.67,16.67,0,0,0,5.93-5.16,24.69,24.69,0,0,0,3.69-8.29,51.52,51.52,0,0,0,0-22.47,25.16,25.16,0,0,0-3.69-8.39,16.81,16.81,0,0,0-5.93-5.24,17.38,17.38,0,0,0-8-1.8,17.57,17.57,0,0,0-8.05,1.8,16.65,16.65,0,0,0-6,5.24,25,25,0,0,0-3.68,8.39,51.12,51.12,0,0,0,0,22.47,24.49,24.49,0,0,0,3.68,8.29,16.51,16.51,0,0,0,6,5.16,17.56,17.56,0,0,0,8.05,1.78m0,7.91a28.83,28.83,0,0,1-11.6-2.29,25,25,0,0,1-9.06-6.68,31.12,31.12,0,0,1-5.88-10.78,52.08,52.08,0,0,1,0-29.28,31.69,31.69,0,0,1,5.88-10.86,25.11,25.11,0,0,1,9.06-6.75,28.67,28.67,0,0,1,11.6-2.31,28.29,28.29,0,0,1,11.52,2.31,25,25,0,0,1,9,6.75,31.88,31.88,0,0,1,5.89,10.86,52.56,52.56,0,0,1,0,29.28,31.3,31.3,0,0,1-5.89,10.78,24.92,24.92,0,0,1-9,6.68,28.45,28.45,0,0,1-11.52,2.29" transform="translate(-27.95 -48.4)"/><path d="M807.67,308.21a10.55,10.55,0,0,1-2.55-.24,2.81,2.81,0,0,1-1.21-.53c-.39-.29-.58-1-.58-2.08v-56.6l-2.41-4a2.43,2.43,0,0,1-.58-1.44,1.38,1.38,0,0,1,.49-1.21,3.76,3.76,0,0,1,1.42-.54,19.34,19.34,0,0,1,3.54-.23,10.74,10.74,0,0,1,2.68.26,3.47,3.47,0,0,1,1.28.51,1.89,1.89,0,0,0,.28.23l.3.25a5.09,5.09,0,0,1,.66,1.11l29.75,47.49v-47a4.06,4.06,0,0,1,.28-1.79,2,2,0,0,1,1.19-.77,9.39,9.39,0,0,1,2.59-.28,8.93,8.93,0,0,1,3.37.41,1.67,1.67,0,0,1,1,.94,6.29,6.29,0,0,1,.14,1.49v61.23a4.05,4.05,0,0,1-.28,1.84,2.06,2.06,0,0,1-1.17.75,8.94,8.94,0,0,1-2.5.26,11.4,11.4,0,0,1-2.54-.21,3,3,0,0,1-1.12-.47,2.17,2.17,0,0,1-.68-.91l-29.12-46.39v45.13c0,1.09-.22,1.79-.63,2.08a2.75,2.75,0,0,1-1,.53,9.54,9.54,0,0,1-2.58.24" transform="translate(-27.95 -48.4)"/></svg>